<svg width="512" height="512" viewBox="0 0 512 512" xmlns="http://www.w3.org/2000/svg">
  <defs>
    <linearGradient id="bg1" x1="0%" y1="0%" x2="100%" y2="100%">
      <stop offset="0%" style="stop-color:#7c3aed"/>
      <stop offset="100%" style="stop-color:#4f46e5"/>
    </linearGradient>
  </defs>
  <rect width="512" height="512" rx="120" fill="url(#bg1)"/>
  <rect x="17" y="17" width="478" height="478" rx="106" fill="none" stroke="rgba(255,255,255,0.12)" stroke-width="2"/>
  <rect x="111" y="137" width="290" height="222" rx="20" fill="rgba(255,255,255,0.12)" stroke="rgba(255,255,255,0.3)" stroke-width="2"/>
  <rect x="111" y="137" width="290" height="38" rx="20" fill="rgba(255,255,255,0.25)"/>
  <line x1="145" y1="208" x2="367" y2="208" stroke="rgba(255,255,255,0.4)" stroke-width="3" stroke-linecap="round"/>
  <line x1="145" y1="238" x2="367" y2="238" stroke="rgba(255,255,255,0.4)" stroke-width="3" stroke-linecap="round"/>
  <line x1="145" y1="268" x2="310" y2="268" stroke="rgba(255,255,255,0.4)" stroke-width="3" stroke-linecap="round"/>
  <line x1="145" y1="298" x2="330" y2="298" stroke="rgba(255,255,255,0.4)" stroke-width="3" stroke-linecap="round"/>
  <polygon points="367,130 376,153 401,153 382,168 389,191 367,177 345,191 352,168 333,153 358,153" fill="#fbbf24"/>
  <rect x="96" y="150" width="14" height="192" rx="7" fill="rgba(255,255,255,0.2)"/>
  <text x="256" y="420" font-family="system-ui, sans-serif" font-weight="800" font-size="48" fill="white" text-anchor="middle" letter-spacing="10">SAR</text>
</svg>